<?xml version="1.0" encoding="utf-8"?>
<!-- Generator: Adobe Illustrator 27.0.0, SVG Export Plug-In . SVG Version: 6.00 Build 0)  -->
<svg version="1.1" id="Layer_1" xmlns="http://www.w3.org/2000/svg" xmlns:xlink="http://www.w3.org/1999/xlink" x="0px" y="0px"
	 viewBox="0 0 104.86 42.83" style="enable-background:new 0 0 104.86 42.83;" xml:space="preserve">
<style type="text/css">
	.st0{fill:#54B9B3;}
	.st1{fill:#4B112C;}
	.st2{fill:#58595B;}
	.st3{fill:#E5173F;}
</style>
<g>
	<path class="st0" d="M55.77,23.86c-0.11,0-0.19-0.09-0.19-0.19v-3.47c0-0.46-0.06-0.8-0.19-1.03c-0.13-0.23-0.32-0.34-0.59-0.34
		c-0.36,0-0.62,0.15-0.79,0.46c-0.17,0.31-0.25,0.78-0.25,1.43v2.95c0,0.11-0.09,0.19-0.19,0.19h-1.95c-0.11,0-0.19-0.09-0.19-0.19
		v-3.47c0-0.46-0.06-0.8-0.18-1.03c-0.12-0.23-0.31-0.34-0.58-0.34c-0.37,0-0.63,0.16-0.8,0.49c-0.17,0.33-0.25,0.86-0.25,1.6v2.76
		c0,0.11-0.09,0.19-0.19,0.19h-1.94c-0.11,0-0.19-0.09-0.19-0.19v-6.36c0-0.11,0.09-0.19,0.19-0.19h1.42c0.08,0,0.16,0.05,0.18,0.13
		l0.25,0.7h0.14c0.18-0.31,0.44-0.55,0.78-0.71c0.34-0.16,0.73-0.24,1.16-0.24c0.97,0,1.65,0.3,2.05,0.89h0.18
		c0.19-0.28,0.46-0.49,0.79-0.65c0.34-0.16,0.71-0.23,1.12-0.23c0.8,0,1.39,0.2,1.77,0.61c0.38,0.41,0.57,1.03,0.57,1.86v4.19
		c0,0.11-0.09,0.19-0.19,0.19H55.77z"/>
	<path class="st0" d="M58.57,17.11h2.02c0.09,0,0.16,0.06,0.19,0.14l1.1,3.73c0.06,0.2,0.09,0.45,0.11,0.73h0.05
		c0.03-0.27,0.08-0.51,0.14-0.72l1.13-3.74c0.02-0.08,0.1-0.14,0.19-0.14h1.95c0.14,0,0.23,0.13,0.18,0.26l-2.57,6.91
		c-0.34,0.91-0.76,1.56-1.26,1.93c-0.5,0.38-1.15,0.57-1.95,0.57c-0.26,0-0.52-0.02-0.79-0.07c-0.09-0.02-0.16-0.1-0.16-0.19v-1.43
		c0-0.12,0.1-0.21,0.22-0.19c0.15,0.02,0.32,0.03,0.5,0.03c0.21,0,0.39-0.04,0.54-0.12c0.15-0.08,0.29-0.19,0.4-0.34
		c0.12-0.14,0.24-0.38,0.37-0.71l-2.55-6.38C58.34,17.25,58.44,17.11,58.57,17.11"/>
	<path class="st1" d="M11.78,22.14c0.37,0,0.64-0.12,0.79-0.35c0.15-0.23,0.24-0.6,0.25-1.08v-0.18c0-0.6-0.09-1.02-0.26-1.27
		c-0.17-0.25-0.44-0.38-0.8-0.38c-0.31,0-0.54,0.14-0.71,0.43c-0.17,0.29-0.25,0.7-0.25,1.23c0,0.52,0.09,0.92,0.26,1.2
		C11.22,22,11.47,22.14,11.78,22.14 M10.83,23.97c-0.48,0-0.9-0.14-1.26-0.41c-0.36-0.27-0.64-0.68-0.83-1.21
		c-0.2-0.53-0.29-1.15-0.29-1.86c0-1.1,0.22-1.95,0.66-2.57c0.44-0.62,1.05-0.93,1.82-0.93c0.38,0,0.71,0.08,0.99,0.23
		c0.28,0.15,0.54,0.4,0.78,0.76h0.05c-0.08-0.53-0.11-1.06-0.11-1.58v-1.61c0-0.11,0.09-0.19,0.19-0.19h1.96
		c0.11,0,0.19,0.09,0.19,0.19v8.87c0,0.11-0.09,0.19-0.19,0.19h-1.45c-0.07,0-0.13-0.04-0.17-0.1L12.71,23h-0.09
		C12.22,23.65,11.62,23.97,10.83,23.97"/>
	<path class="st1" d="M19.21,18.58c-0.27,0-0.5,0.09-0.69,0.26c-0.18,0.17-0.29,0.44-0.32,0.81h2c-0.01-0.33-0.1-0.59-0.28-0.78
		C19.74,18.67,19.5,18.58,19.21,18.58 M19.34,23.97c-1.12,0-2-0.3-2.62-0.9c-0.62-0.6-0.93-1.45-0.93-2.55
		c0-1.14,0.29-2.01,0.86-2.62c0.58-0.61,1.4-0.91,2.46-0.91c1.02,0,1.8,0.26,2.35,0.79c0.55,0.53,0.83,1.29,0.83,2.29v0.84
		c0,0.11-0.09,0.19-0.19,0.19h-3.97c0.02,0.38,0.15,0.67,0.41,0.89c0.26,0.21,0.61,0.32,1.06,0.32c0.41,0,0.78-0.04,1.13-0.12
		c0.27-0.06,0.55-0.15,0.85-0.28c0.13-0.05,0.27,0.04,0.27,0.18v1.25c0,0.08-0.04,0.14-0.11,0.18c-0.33,0.16-0.67,0.27-1.02,0.33
		C20.35,23.94,19.88,23.97,19.34,23.97"/>
	<path class="st1" d="M28.34,21.78c0,0.72-0.25,1.27-0.74,1.64c-0.49,0.37-1.2,0.55-2.12,0.55c-0.5,0-0.93-0.03-1.3-0.08
		c-0.33-0.05-0.66-0.13-1-0.25c-0.08-0.03-0.13-0.1-0.13-0.18v-1.44c0-0.14,0.13-0.23,0.26-0.18c0.29,0.11,0.6,0.21,0.93,0.29
		c0.43,0.1,0.81,0.16,1.15,0.16c0.5,0,0.76-0.12,0.76-0.35c0-0.12-0.07-0.23-0.21-0.32c-0.14-0.09-0.55-0.27-1.23-0.54
		c-0.62-0.25-1.05-0.54-1.3-0.87c-0.25-0.32-0.37-0.73-0.37-1.23c0-0.63,0.24-1.11,0.73-1.46c0.48-0.35,1.17-0.52,2.05-0.52
		c0.44,0,0.86,0.05,1.25,0.15c0.34,0.08,0.68,0.2,1.04,0.35c0.1,0.04,0.14,0.16,0.1,0.26l-0.48,1.14c-0.04,0.1-0.15,0.14-0.25,0.1
		c-0.26-0.11-0.52-0.2-0.8-0.28c-0.35-0.1-0.63-0.15-0.85-0.15c-0.38,0-0.57,0.09-0.57,0.28c0,0.12,0.07,0.21,0.2,0.29
		c0.13,0.08,0.52,0.25,1.15,0.5c0.47,0.19,0.82,0.39,1.06,0.57s0.4,0.41,0.51,0.66C28.29,21.12,28.34,21.42,28.34,21.78"/>
	<path class="st1" d="M31.4,23.86h-1.94c-0.11,0-0.19-0.09-0.19-0.19v-6.36c0-0.11,0.09-0.19,0.19-0.19h1.94
		c0.11,0,0.19,0.09,0.19,0.19v6.36C31.59,23.77,31.5,23.86,31.4,23.86 M29.2,15.43c0-0.35,0.1-0.61,0.29-0.78
		c0.19-0.17,0.51-0.26,0.94-0.26c0.43,0,0.75,0.09,0.95,0.26c0.2,0.17,0.3,0.43,0.3,0.77c0,0.68-0.41,1.02-1.24,1.02
		C29.61,16.46,29.2,16.12,29.2,15.43"/>
	<path class="st1" d="M34.64,19.32c0,0.69,0.24,1.04,0.72,1.04c0.22,0,0.39-0.09,0.51-0.26c0.12-0.17,0.18-0.43,0.18-0.77
		c0-0.7-0.23-1.05-0.7-1.05C34.88,18.28,34.64,18.63,34.64,19.32 M33.9,24.69c0,0.19,0.1,0.34,0.31,0.46
		c0.21,0.12,0.48,0.18,0.83,0.18c0.56,0,1.02-0.07,1.35-0.21c0.34-0.14,0.51-0.32,0.51-0.54c0-0.18-0.1-0.3-0.31-0.38
		c-0.21-0.07-0.5-0.11-0.89-0.11H34.8c-0.25,0-0.46,0.06-0.63,0.18S33.9,24.52,33.9,24.69 M38.99,17.31v0.8
		c0,0.08-0.05,0.15-0.13,0.18l-0.8,0.29c0.13,0.23,0.19,0.5,0.19,0.8c0,0.73-0.26,1.29-0.76,1.69c-0.51,0.4-1.27,0.6-2.28,0.6
		c-0.25,0-0.45-0.02-0.6-0.05c-0.06,0.1-0.08,0.2-0.08,0.29c0,0.12,0.09,0.2,0.28,0.26c0.19,0.06,0.43,0.09,0.73,0.09h1.12
		c1.51,0,2.27,0.64,2.27,1.91c0,0.82-0.35,1.46-1.05,1.92c-0.7,0.46-1.68,0.68-2.95,0.68c-0.96,0-1.69-0.16-2.21-0.48
		c-0.52-0.32-0.78-0.78-0.78-1.38c0-0.81,0.5-1.33,1.5-1.56c-0.21-0.09-0.39-0.23-0.54-0.42c-0.15-0.19-0.23-0.39-0.23-0.58
		c0-0.21,0.06-0.4,0.17-0.56c0.12-0.16,0.36-0.35,0.72-0.57c-0.35-0.15-0.62-0.4-0.82-0.73c-0.2-0.33-0.3-0.73-0.3-1.2
		c0-0.73,0.25-1.3,0.75-1.71c0.5-0.4,1.21-0.61,2.14-0.61c0.12,0,0.34,0.01,0.64,0.04c0.3,0.03,0.52,0.05,0.67,0.08h2.16
		C38.9,17.11,38.99,17.2,38.99,17.31"/>
	<path class="st1" d="M46.26,21.58c0.04-0.04,0.06-0.09,0.06-0.14v-1.98c0-0.79-0.21-1.39-0.62-1.83c-0.41-0.43-0.99-0.65-1.74-0.65
		c-0.46,0-0.86,0.08-1.21,0.24c-0.35,0.16-0.63,0.4-0.82,0.71h-0.14l-0.25-0.7c-0.03-0.08-0.1-0.13-0.18-0.13h-1.42
		c-0.11,0-0.19,0.09-0.19,0.19v6.36c0,0.11,0.09,0.19,0.19,0.19h1.94c0.11,0,0.19-0.09,0.19-0.19V20.9c0-0.76,0.09-1.3,0.26-1.61
		c0.17-0.31,0.46-0.47,0.85-0.47c0.29,0,0.49,0.11,0.62,0.34s0.19,0.57,0.19,1.01v3.21c0,0.17,0.21,0.26,0.33,0.14L46.26,21.58z"/>
	<path class="st1" d="M75.26,23.86h-1.94c-0.11,0-0.19-0.09-0.19-0.19v-6.36c0-0.11,0.09-0.19,0.19-0.19h1.94
		c0.11,0,0.19,0.09,0.19,0.19v6.36C75.46,23.77,75.37,23.86,75.26,23.86 M73.07,15.43c0-0.35,0.1-0.61,0.29-0.78
		c0.19-0.17,0.51-0.26,0.94-0.26c0.43,0,0.75,0.09,0.95,0.26c0.2,0.17,0.3,0.43,0.3,0.77c0,0.68-0.41,1.02-1.24,1.02
		C73.48,16.46,73.07,16.12,73.07,15.43"/>
	<path class="st1" d="M78.6,19.32c0,0.69,0.24,1.04,0.72,1.04c0.22,0,0.39-0.09,0.51-0.26c0.12-0.17,0.18-0.43,0.18-0.77
		c0-0.7-0.23-1.05-0.7-1.05C78.84,18.28,78.6,18.63,78.6,19.32 M77.87,24.69c0,0.19,0.1,0.34,0.31,0.46
		c0.21,0.12,0.48,0.18,0.83,0.18c0.56,0,1.02-0.07,1.35-0.21c0.34-0.14,0.51-0.32,0.51-0.54c0-0.18-0.1-0.3-0.31-0.38
		c-0.21-0.07-0.5-0.11-0.89-0.11h-0.91c-0.25,0-0.46,0.06-0.63,0.18C77.96,24.38,77.87,24.52,77.87,24.69 M82.96,17.31v0.8
		c0,0.08-0.05,0.15-0.13,0.18l-0.8,0.29c0.13,0.23,0.19,0.5,0.19,0.8c0,0.73-0.26,1.29-0.76,1.69c-0.51,0.4-1.27,0.6-2.28,0.6
		c-0.25,0-0.45-0.02-0.6-0.05c-0.06,0.1-0.08,0.2-0.08,0.29c0,0.12,0.09,0.2,0.28,0.26c0.19,0.06,0.43,0.09,0.73,0.09h1.12
		c1.51,0,2.27,0.64,2.27,1.91c0,0.82-0.35,1.46-1.05,1.92c-0.7,0.46-1.68,0.68-2.95,0.68c-0.96,0-1.69-0.16-2.21-0.48
		c-0.52-0.32-0.78-0.78-0.78-1.38c0-0.81,0.5-1.33,1.5-1.56c-0.21-0.09-0.39-0.23-0.54-0.42c-0.15-0.19-0.23-0.39-0.23-0.58
		c0-0.21,0.06-0.4,0.17-0.56c0.12-0.16,0.36-0.35,0.72-0.57c-0.35-0.15-0.62-0.4-0.82-0.73c-0.2-0.33-0.3-0.73-0.3-1.2
		c0-0.73,0.25-1.3,0.75-1.71c0.5-0.4,1.21-0.61,2.14-0.61c0.12,0,0.34,0.01,0.64,0.04c0.3,0.03,0.52,0.05,0.67,0.08h2.16
		C82.87,17.11,82.96,17.2,82.96,17.31"/>
	<path class="st1" d="M88.24,23.86c-0.11,0-0.19-0.09-0.19-0.19v-3.48c0-0.9-0.27-1.36-0.8-1.36c-0.38,0-0.66,0.16-0.84,0.48
		c-0.18,0.32-0.27,0.85-0.27,1.59v2.77c0,0.11-0.09,0.19-0.19,0.19H84c-0.11,0-0.19-0.09-0.19-0.19v-8.87
		c0-0.11,0.09-0.19,0.19-0.19h1.94c0.11,0,0.19,0.09,0.19,0.19v1.12c0,0.6-0.03,1.27-0.1,2.04h0.11c0.22-0.35,0.49-0.6,0.79-0.74
		c0.31-0.14,0.66-0.21,1.07-0.21c0.75,0,1.34,0.22,1.76,0.65c0.42,0.43,0.63,1.04,0.63,1.82v4.19c0,0.11-0.09,0.19-0.19,0.19H88.24z
		"/>
	<path class="st1" d="M94.99,22.14c0.25,0,0.54-0.05,0.88-0.15c0.12-0.04,0.25,0.05,0.25,0.18v1.3c0,0.08-0.05,0.15-0.12,0.18
		c-0.27,0.11-0.53,0.19-0.77,0.24c-0.28,0.06-0.62,0.09-1,0.09c-0.78,0-1.35-0.19-1.69-0.57c-0.35-0.38-0.52-0.97-0.52-1.76v-2.78
		H91.4c-0.11,0-0.19-0.09-0.19-0.19v-0.65c0-0.06,0.03-0.12,0.08-0.16l0.95-0.67l0.55-1.3c0.03-0.07,0.1-0.12,0.18-0.12h1.2
		c0.11,0,0.19,0.09,0.19,0.19v1.16h1.46c0.11,0,0.19,0.09,0.19,0.19v1.36c0,0.11-0.09,0.19-0.19,0.19h-1.46v2.62
		C94.36,21.92,94.57,22.14,94.99,22.14"/>
	<path class="st1" d="M71.61,17.64c-0.41-0.43-0.99-0.65-1.74-0.65c-0.46,0-0.86,0.08-1.21,0.24c-0.21,0.09-0.39,0.22-0.55,0.37l0,0
		l-0.02,0.02c0,0,0,0,0,0l-2.38,2.31c-0.04,0.04-0.06,0.09-0.06,0.14v3.59c0,0.11,0.09,0.19,0.19,0.19h1.94
		c0.11,0,0.19-0.09,0.19-0.19V20.9c0-0.76,0.09-1.3,0.26-1.61c0.17-0.31,0.46-0.47,0.85-0.47c0.29,0,0.49,0.11,0.62,0.34
		c0.13,0.23,0.19,0.57,0.19,1.01v3.48c0,0.11,0.09,0.19,0.19,0.19h1.94c0.11,0,0.19-0.09,0.19-0.19v-4.19
		C72.23,18.68,72.02,18.07,71.61,17.64"/>
</g>
<g>
	<path class="st2" d="M3.7,40.32l-0.12-0.86H3.54c-0.27,0.35-0.55,0.59-0.84,0.74c-0.29,0.14-0.63,0.22-1.02,0.22
		c-0.53,0-0.94-0.14-1.24-0.41S0,39.36,0,38.88c0-0.53,0.22-0.94,0.66-1.23c0.44-0.29,1.08-0.45,1.91-0.46l1.03-0.03V36.8
		c0-0.51-0.1-0.9-0.31-1.16c-0.21-0.26-0.55-0.39-1.01-0.39c-0.5,0-1.02,0.14-1.56,0.42l-0.18-0.43c0.59-0.28,1.18-0.42,1.76-0.42
		c0.59,0,1.04,0.15,1.33,0.46s0.44,0.79,0.44,1.44v3.6H3.7z M1.71,39.97c0.58,0,1.03-0.17,1.37-0.5c0.33-0.33,0.5-0.79,0.5-1.38
		v-0.53L2.63,37.6c-0.76,0.04-1.3,0.16-1.63,0.36c-0.32,0.2-0.49,0.51-0.49,0.94c0,0.34,0.1,0.6,0.31,0.79
		C1.04,39.87,1.33,39.97,1.71,39.97z"/>
	<path class="st2" d="M9.59,40.32v-3.51c0-0.54-0.11-0.94-0.34-1.19c-0.23-0.25-0.58-0.37-1.07-0.37c-0.65,0-1.12,0.16-1.42,0.49
		c-0.3,0.33-0.45,0.86-0.45,1.59v2.99H5.82v-5.41h0.42l0.09,0.74h0.03c0.35-0.56,0.98-0.85,1.88-0.85c1.23,0,1.84,0.66,1.84,1.98
		v3.54H9.59z"/>
	<path class="st2" d="M65.95,40.42c-0.77,0-1.38-0.24-1.82-0.73s-0.66-1.17-0.66-2.04c0-0.9,0.23-1.59,0.68-2.09
		c0.45-0.5,1.08-0.75,1.87-0.75c0.47,0,0.92,0.08,1.34,0.24l-0.13,0.44c-0.47-0.16-0.87-0.23-1.22-0.23c-0.66,0-1.17,0.2-1.51,0.61
		c-0.34,0.41-0.51,1-0.51,1.77c0,0.73,0.17,1.3,0.51,1.71c0.34,0.41,0.82,0.62,1.43,0.62c0.49,0,0.95-0.09,1.37-0.26v0.46
		C66.96,40.33,66.51,40.42,65.95,40.42z"/>
	<path class="st2" d="M73.1,37.6c0,0.88-0.21,1.57-0.64,2.07c-0.43,0.5-1.02,0.74-1.77,0.74c-0.47,0-0.89-0.11-1.25-0.34
		c-0.36-0.23-0.64-0.56-0.83-0.99c-0.19-0.43-0.29-0.92-0.29-1.48c0-0.88,0.21-1.57,0.64-2.06c0.43-0.49,1.02-0.74,1.76-0.74
		c0.74,0,1.33,0.25,1.75,0.75C72.89,36.05,73.1,36.73,73.1,37.6z M68.83,37.6c0,0.74,0.16,1.32,0.49,1.74
		c0.33,0.42,0.79,0.62,1.39,0.62c0.6,0,1.06-0.21,1.39-0.62c0.33-0.42,0.49-1,0.49-1.74c0-0.75-0.17-1.33-0.5-1.74
		c-0.33-0.41-0.79-0.62-1.39-0.62c-0.6,0-1.06,0.2-1.38,0.61C69,36.27,68.83,36.85,68.83,37.6z"/>
	<path class="st2" d="M81.36,40.32v-3.55c0-0.53-0.1-0.91-0.31-1.15c-0.21-0.24-0.52-0.36-0.95-0.36c-0.55,0-0.96,0.15-1.23,0.46
		c-0.27,0.31-0.4,0.78-0.4,1.44v3.17h-0.5v-3.7c0-0.91-0.42-1.37-1.25-1.37c-0.57,0-0.98,0.17-1.24,0.5
		c-0.26,0.33-0.39,0.86-0.39,1.59v2.99H74.6v-5.41h0.41l0.1,0.74h0.03c0.15-0.27,0.36-0.48,0.64-0.62c0.28-0.15,0.58-0.22,0.91-0.22
		c0.85,0,1.4,0.32,1.64,0.96h0.02c0.18-0.31,0.41-0.55,0.71-0.71c0.3-0.17,0.63-0.25,1.01-0.25c0.59,0,1.03,0.16,1.33,0.47
		c0.3,0.32,0.44,0.82,0.44,1.5v3.54H81.36z"/>
	<path class="st2" d="M85.92,40.42c-0.83,0-1.44-0.31-1.82-0.94h-0.03l0.01,0.42c0.01,0.25,0.02,0.51,0.02,0.81v2.06H83.6v-7.86
		h0.42l0.09,0.77h0.03c0.37-0.58,0.97-0.88,1.78-0.88c0.73,0,1.29,0.24,1.67,0.72c0.38,0.48,0.57,1.18,0.57,2.09
		c0,0.89-0.2,1.58-0.6,2.07C87.16,40.17,86.61,40.42,85.92,40.42z M85.91,39.98c0.55,0,0.98-0.21,1.29-0.62
		c0.3-0.41,0.46-0.99,0.46-1.73c0-1.59-0.57-2.38-1.72-2.38c-0.63,0-1.09,0.17-1.39,0.52c-0.3,0.35-0.44,0.91-0.44,1.69v0.16
		c0,0.85,0.14,1.45,0.43,1.81S85.27,39.98,85.91,39.98z"/>
	<path class="st2" d="M92.95,40.32l-0.12-0.86h-0.04c-0.27,0.35-0.55,0.59-0.84,0.74c-0.29,0.14-0.63,0.22-1.02,0.22
		c-0.53,0-0.94-0.14-1.24-0.41c-0.3-0.27-0.44-0.65-0.44-1.13c0-0.53,0.22-0.94,0.66-1.23c0.44-0.29,1.08-0.45,1.91-0.46l1.03-0.03
		V36.8c0-0.51-0.1-0.9-0.31-1.16c-0.21-0.26-0.55-0.39-1.01-0.39c-0.5,0-1.02,0.14-1.56,0.42l-0.18-0.43
		c0.59-0.28,1.18-0.42,1.76-0.42c0.59,0,1.04,0.15,1.33,0.46c0.29,0.31,0.44,0.79,0.44,1.44v3.6H92.95z M90.96,39.97
		c0.58,0,1.03-0.17,1.37-0.5c0.33-0.33,0.5-0.79,0.5-1.38v-0.53l-0.95,0.04c-0.76,0.04-1.3,0.16-1.63,0.36
		c-0.32,0.2-0.49,0.51-0.49,0.94c0,0.34,0.1,0.6,0.31,0.79C90.29,39.87,90.59,39.97,90.96,39.97z"/>
	<path class="st2" d="M98.84,40.32v-3.51c0-0.54-0.11-0.94-0.34-1.19c-0.23-0.25-0.58-0.37-1.07-0.37c-0.65,0-1.12,0.16-1.42,0.49
		c-0.3,0.33-0.45,0.86-0.45,1.59v2.99h-0.49v-5.41h0.42l0.09,0.74h0.03c0.35-0.56,0.98-0.85,1.88-0.85c1.23,0,1.84,0.66,1.84,1.98
		v3.54H98.84z"/>
	<path class="st2" d="M100.18,34.91h0.51l1.14,3.04c0.35,0.93,0.57,1.56,0.66,1.89h0.03c0.14-0.43,0.37-1.07,0.68-1.92l1.14-3.01
		h0.51l-2.42,6.29c-0.2,0.51-0.36,0.86-0.49,1.04c-0.13,0.18-0.29,0.31-0.47,0.4c-0.18,0.09-0.39,0.13-0.64,0.13
		c-0.19,0-0.4-0.03-0.63-0.1v-0.43c0.19,0.05,0.4,0.08,0.62,0.08c0.17,0,0.32-0.04,0.45-0.12c0.13-0.08,0.25-0.2,0.35-0.37
		s0.23-0.43,0.36-0.8c0.14-0.36,0.23-0.6,0.27-0.71L100.18,34.91z"/>
	<g>
		<path class="st3" d="M27.09,37.55l-4.52-4.01l0,0c-0.95-0.84-2.17-1.33-3.52-1.33c-2.93,0-5.31,2.38-5.31,5.31
			c0,2.93,2.38,5.31,5.31,5.31c1.35,0,2.57-0.51,3.52-1.33l0,0L27.09,37.55z M15.33,37.55c0-2.03,1.65-3.71,3.71-3.71
			c2.03,0,3.71,1.65,3.71,3.71c0,2.03-1.65,3.71-3.71,3.71C17.01,41.23,15.33,39.58,15.33,37.55"/>
	</g>
	<g>
		<path class="st2" d="M28.99,38.94c0-1.09,0.91-1.85,3.55-2.21v-0.25c0-0.65-0.36-0.98-1.01-0.98c-0.8,0-1.38,0.36-1.92,0.8
			l-0.51-0.47c0.65-0.62,1.49-1.05,2.54-1.05c1.27,0,1.77,0.65,1.77,1.77v2.35c0,0.65,0.04,1.01,0.14,1.3h-0.91
			c-0.07-0.22-0.11-0.43-0.11-0.72c-0.58,0.54-1.27,0.8-2.03,0.8C29.57,40.28,28.99,39.81,28.99,38.94 M32.54,38.83v-1.49
			c-2.03,0.33-2.68,0.8-2.68,1.49c0,0.51,0.33,0.8,0.91,0.8C31.42,39.59,32.03,39.3,32.54,38.83"/>
	</g>
	<g>
		<path class="st2" d="M34.53,37.56c0-1.92,1.23-2.75,2.43-2.75s1.74,0.69,2.06,1.49l-0.72,0.29c-0.25-0.69-0.69-1.05-1.38-1.05
			c-0.76,0-1.52,0.54-1.52,2.03c0,1.3,0.62,2.03,1.52,2.03c0.69,0,1.09-0.29,1.41-1.05l0.72,0.29c-0.4,0.87-1.01,1.52-2.17,1.52
			C35.69,40.31,34.53,39.37,34.53,37.56"/>
	</g>
	<g>
		<path class="st2" d="M39.82,37.56c0-1.92,1.23-2.75,2.43-2.75s1.74,0.69,2.06,1.49l-0.72,0.29c-0.25-0.69-0.69-1.05-1.38-1.05
			c-0.76,0-1.52,0.54-1.52,2.03c0,1.3,0.62,2.03,1.52,2.03c0.69,0,1.09-0.29,1.41-1.05l0.72,0.29c-0.4,0.87-1.01,1.52-2.17,1.52
			C40.98,40.31,39.82,39.37,39.82,37.56"/>
	</g>
	<g>
		<path class="st2" d="M45.11,37.56c0-1.92,1.27-2.75,2.39-2.75c1.27,0,2.21,0.87,2.21,2.79v0.18h-3.73
			c0.04,1.2,0.72,1.85,1.59,1.85c0.76,0,1.2-0.33,1.59-0.87l0.51,0.43c-0.51,0.69-1.16,1.12-2.17,1.12
			C46.27,40.31,45.11,39.41,45.11,37.56 M48.91,37.09c-0.07-0.94-0.51-1.59-1.38-1.59c-0.72,0-1.38,0.51-1.52,1.59H48.91z"/>
	</g>
	<g>
		<path class="st2" d="M50.47,39.41l0.51-0.51c0.4,0.43,0.94,0.72,1.67,0.72c0.83,0,1.27-0.29,1.27-0.83s-0.47-0.72-1.38-0.94
			c-1.12-0.25-1.88-0.58-1.88-1.59c0-0.8,0.69-1.45,1.85-1.45c0.94,0,1.52,0.29,2.03,0.76l-0.43,0.58c-0.4-0.36-0.94-0.62-1.52-0.62
			c-0.76,0-1.09,0.33-1.09,0.72c0,0.51,0.43,0.69,1.27,0.87c1.2,0.29,2.03,0.58,2.03,1.67c0,1.01-0.91,1.56-2.1,1.56
			C51.7,40.28,50.9,39.91,50.47,39.41"/>
	</g>
	<g>
		<path class="st2" d="M55.51,39.41l0.51-0.51c0.4,0.43,0.94,0.72,1.67,0.72c0.83,0,1.27-0.29,1.27-0.83s-0.47-0.72-1.38-0.94
			c-1.12-0.25-1.88-0.58-1.88-1.59c0-0.8,0.69-1.45,1.85-1.45c0.94,0,1.52,0.29,2.03,0.76l-0.43,0.58c-0.4-0.36-0.94-0.62-1.52-0.62
			c-0.76,0-1.09,0.33-1.09,0.72c0,0.51,0.43,0.69,1.27,0.87c1.2,0.29,2.03,0.58,2.03,1.67c0,1.01-0.91,1.56-2.1,1.56
			C56.74,40.28,55.94,39.91,55.51,39.41"/>
	</g>
</g>
<g>
	<path class="st2" d="M34.88,5.63c-0.6,0-1.03-0.22-1.31-0.67h-0.02l0.01,0.3c0.01,0.18,0.01,0.37,0.01,0.58v1.48h-0.35V1.67h0.3
		l0.07,0.55h0.02c0.27-0.42,0.69-0.63,1.28-0.63c0.52,0,0.92,0.17,1.2,0.52c0.27,0.34,0.41,0.84,0.41,1.5
		c0,0.64-0.15,1.13-0.43,1.48C35.78,5.45,35.38,5.63,34.88,5.63z M34.88,5.31c0.4,0,0.71-0.15,0.92-0.44
		c0.22-0.3,0.33-0.71,0.33-1.24c0-1.14-0.41-1.71-1.24-1.71c-0.45,0-0.78,0.12-1,0.37c-0.21,0.25-0.32,0.65-0.32,1.22v0.11
		c0,0.61,0.1,1.04,0.31,1.3C34.08,5.18,34.42,5.31,34.88,5.31z"/>
	<path class="st2" d="M40.79,3.61c0,0.63-0.15,1.13-0.46,1.48s-0.73,0.53-1.27,0.53c-0.34,0-0.64-0.08-0.9-0.25
		c-0.26-0.16-0.46-0.4-0.6-0.71c-0.14-0.31-0.21-0.66-0.21-1.06c0-0.63,0.15-1.13,0.46-1.48s0.73-0.53,1.26-0.53
		c0.53,0,0.95,0.18,1.26,0.54S40.79,2.99,40.79,3.61z M37.72,3.61c0,0.53,0.12,0.95,0.35,1.25c0.23,0.3,0.57,0.45,0.99,0.45
		c0.43,0,0.76-0.15,0.99-0.45c0.23-0.3,0.35-0.71,0.35-1.25c0-0.54-0.12-0.95-0.36-1.25c-0.24-0.29-0.57-0.44-1-0.44
		s-0.76,0.15-0.99,0.44C37.84,2.66,37.72,3.07,37.72,3.61z"/>
	<path class="st2" d="M44.96,5.56l-0.85-2.6c-0.05-0.18-0.12-0.43-0.21-0.78h-0.02l-0.08,0.26l-0.16,0.52l-0.86,2.59h-0.35
		l-1.11-3.88h0.38l0.62,2.25c0.15,0.56,0.24,0.97,0.29,1.23h0.02c0.14-0.56,0.24-0.93,0.31-1.11l0.8-2.37h0.32l0.76,2.36
		c0.17,0.56,0.28,0.93,0.31,1.11h0.02c0.02-0.15,0.11-0.57,0.29-1.24l0.59-2.23h0.36l-1.05,3.88H44.96z"/>
	<path class="st2" d="M48.72,5.63c-0.56,0-1-0.17-1.32-0.52c-0.32-0.35-0.47-0.83-0.47-1.46c0-0.62,0.15-1.11,0.46-1.49
		c0.3-0.37,0.72-0.56,1.23-0.56c0.46,0,0.82,0.16,1.08,0.48s0.4,0.75,0.4,1.3v0.29h-2.8c0,0.53,0.13,0.94,0.37,1.22
		c0.24,0.28,0.59,0.42,1.05,0.42c0.22,0,0.42-0.02,0.58-0.05s0.38-0.1,0.64-0.2v0.32c-0.22,0.1-0.42,0.16-0.61,0.19
		C49.15,5.61,48.94,5.63,48.72,5.63z M48.61,1.91c-0.37,0-0.67,0.12-0.9,0.37c-0.23,0.25-0.36,0.6-0.4,1.07h2.4
		c0-0.45-0.1-0.8-0.29-1.06C49.23,2.04,48.96,1.91,48.61,1.91z"/>
	<path class="st2" d="M52.69,1.6c0.16,0,0.34,0.02,0.53,0.05l-0.07,0.34c-0.16-0.04-0.33-0.06-0.5-0.06c-0.33,0-0.6,0.14-0.81,0.42
		s-0.32,0.64-0.32,1.06v2.14h-0.35V1.67h0.3l0.04,0.7h0.02c0.16-0.29,0.33-0.49,0.51-0.6C52.22,1.66,52.44,1.6,52.69,1.6z"/>
	<path class="st2" d="M55.58,5.63c-0.56,0-1-0.17-1.32-0.52c-0.32-0.35-0.47-0.83-0.47-1.46c0-0.62,0.15-1.11,0.46-1.49
		c0.3-0.37,0.72-0.56,1.23-0.56c0.46,0,0.82,0.16,1.08,0.48s0.4,0.75,0.4,1.3v0.29h-2.8c0,0.53,0.13,0.94,0.37,1.22
		c0.24,0.28,0.59,0.42,1.05,0.42c0.22,0,0.42-0.02,0.58-0.05s0.38-0.1,0.64-0.2v0.32c-0.22,0.1-0.42,0.16-0.61,0.19
		C56.01,5.61,55.8,5.63,55.58,5.63z M55.48,1.91c-0.37,0-0.67,0.12-0.9,0.37c-0.23,0.25-0.36,0.6-0.4,1.07h2.4
		c0-0.45-0.1-0.8-0.29-1.06C56.09,2.04,55.82,1.91,55.48,1.91z"/>
	<path class="st2" d="M59.45,1.6c0.28,0,0.52,0.05,0.73,0.15c0.21,0.1,0.39,0.28,0.55,0.53h0.02c-0.01-0.3-0.02-0.59-0.02-0.88V0
		h0.35v5.56h-0.23l-0.09-0.59h-0.03c-0.3,0.44-0.72,0.66-1.27,0.66c-0.54,0-0.95-0.17-1.23-0.5C57.94,4.8,57.8,4.31,57.8,3.67
		c0-0.67,0.14-1.18,0.42-1.54C58.5,1.78,58.91,1.6,59.45,1.6z M59.45,1.92c-0.42,0-0.74,0.15-0.96,0.45
		c-0.21,0.3-0.32,0.73-0.32,1.3c0,1.1,0.43,1.65,1.28,1.65c0.44,0,0.76-0.13,0.96-0.38c0.2-0.25,0.31-0.67,0.31-1.26V3.61
		c0-0.6-0.1-1.03-0.3-1.29C60.22,2.05,59.9,1.92,59.45,1.92z"/>
	<path class="st2" d="M65.92,1.6c0.54,0,0.95,0.17,1.23,0.51c0.27,0.34,0.41,0.84,0.41,1.5c0,0.65-0.15,1.14-0.43,1.49
		s-0.7,0.52-1.22,0.52c-0.28,0-0.52-0.06-0.75-0.17c-0.22-0.11-0.4-0.28-0.52-0.49H64.6l-0.1,0.59h-0.22V0h0.35v1.4
		c0,0.21,0,0.4-0.01,0.58l-0.01,0.3h0.02c0.15-0.23,0.33-0.4,0.53-0.51C65.37,1.65,65.63,1.6,65.92,1.6z M65.91,1.92
		c-0.46,0-0.78,0.13-0.98,0.39c-0.2,0.26-0.3,0.69-0.3,1.3v0.06c0,0.59,0.1,1.01,0.31,1.26s0.53,0.38,0.96,0.38
		c0.42,0,0.74-0.15,0.96-0.44c0.21-0.3,0.32-0.72,0.32-1.27C67.18,2.48,66.76,1.92,65.91,1.92z"/>
	<path class="st2" d="M67.98,1.67h0.36l0.82,2.18c0.25,0.67,0.41,1.12,0.48,1.35h0.02c0.1-0.31,0.26-0.77,0.49-1.38l0.82-2.16h0.36
		L69.6,6.19c-0.14,0.37-0.26,0.61-0.35,0.74c-0.1,0.13-0.21,0.22-0.33,0.29s-0.28,0.1-0.46,0.1c-0.14,0-0.29-0.03-0.45-0.08V6.93
		c0.14,0.04,0.29,0.06,0.45,0.06c0.12,0,0.23-0.03,0.32-0.09s0.18-0.15,0.25-0.27c0.08-0.12,0.16-0.31,0.26-0.57
		c0.1-0.26,0.16-0.43,0.19-0.51L67.98,1.67z"/>
</g>
</svg>
